<svg xmlns="http://www.w3.org/2000/svg" viewBox="0 0 256 256" fill="none">
  <circle cx="128" cy="128" r="128" fill="#09090B"/>
  
  <g fill="#D97706">
    <circle cx="128" cy="128" r="48"/>
    <path d="M128 56C88.2 56 56 88.2 56 128C56 135 56.9 141.8 58.6 148.4L35.6 156.6C32.7 147.6 31.2 138 31.2 128C31.2 74.5 74.5 31.2 128 31.2C181.5 31.2 224.8 74.5 224.8 128C224.8 138 223.3 147.6 220.4 156.6L197.4 148.4C199.1 141.8 200 135 200 128C200 88.2 167.8 56 128 56Z"/>
    <path d="M256 128C256 198.7 198.7 256 128 256C112.8 256 98.1 253.3 84.4 248.3L92.2 225C103.5 229 115.5 231.2 128 231.2C185 231.2 231.2 185 231.2 128C231.2 115.5 229 103.5 225 92.2L248.3 84.4C253.3 98.1 256 112.8 256 128Z"/>
    <path d="M0 128C0 57.3 57.3 0 128 0V24.8C71 24.8 24.8 71 24.8 128H0Z"/>
  </g>
</svg>

